<?xml version="1.0" encoding="UTF-8" standalone="no"?>
<!DOCTYPE svg PUBLIC "-//W3C//DTD SVG 1.1//EN" "http://www.w3.org/Graphics/SVG/1.1/DTD/svg11.dtd">
<svg width="100%" height="100%" viewBox="0 0 1024 1024" version="1.1" xmlns="http://www.w3.org/2000/svg" xmlns:xlink="http://www.w3.org/1999/xlink" xml:space="preserve" xmlns:serif="http://www.serif.com/" style="fill-rule:evenodd;clip-rule:evenodd;stroke-linejoin:round;stroke-miterlimit:2;">
    <g transform="matrix(2,0,0,2,0,0)">
        <g>
            <g id="XMLID_138_">
                <path id="XMLID_787_" d="M476.469,98.541C452.38,63.553 419.796,44.283 384.721,44.283C381.983,44.283 379.232,44.419 376.493,44.661C369.875,20.34 347.593,2.397 321.184,2.397L71.126,2.397C31.907,2.396 0,34.275 0,73.459L0,272.93C0,302.72 23.443,327.138 52.864,328.743L52.864,421.807C52.864,423.843 51.198,425.499 49.151,425.499C30.562,425.499 15.438,440.613 15.438,459.191L15.438,475.912C15.438,494.489 30.562,509.603 49.151,509.603L351.643,509.603C370.232,509.603 385.356,494.489 385.356,475.912L385.356,459.191C385.356,440.613 370.232,425.499 351.643,425.499C349.596,425.499 347.93,423.843 347.93,421.807L347.93,392.975C359.782,397.924 372.105,400.437 384.722,400.437C419.797,400.437 452.38,381.167 476.47,346.179C499.382,312.901 512,268.927 512,222.36C512,175.793 499.382,131.82 476.469,98.541ZM30,272.93L30,73.459C30,50.816 48.449,32.396 71.126,32.396L321.186,32.396C336.249,32.396 348.505,44.63 348.505,59.667C348.505,69.748 340.287,77.949 330.186,77.949L317.169,77.949C291.634,77.949 270.859,98.708 270.859,124.223L270.859,129.039C270.859,135.357 265.706,140.497 259.372,140.497C231.921,140.497 209.588,162.812 209.588,190.242L209.588,210.333C209.588,222.676 199.527,232.718 187.162,232.718C174.796,232.718 164.735,222.677 164.735,210.334L164.735,181.886C164.735,159.064 146.155,140.497 123.317,140.497C100.479,140.497 81.899,159.063 81.899,181.886L81.899,272.929C81.899,287.211 70.258,298.831 55.95,298.831C41.642,298.831 30,287.212 30,272.93ZM351.643,455.5C353.69,455.5 355.356,457.156 355.356,459.192L355.356,475.913C355.356,477.948 353.69,479.604 351.643,479.604L49.15,479.604C47.103,479.604 45.437,477.948 45.437,475.913L45.437,459.192C45.437,457.156 47.103,455.5 49.15,455.5C67.739,455.5 82.863,440.386 82.863,421.808L82.863,322.337C82.863,322.201 82.846,322.069 82.843,321.933C100.145,312.415 111.897,294.02 111.897,272.93L111.897,181.887C111.897,175.608 117.019,170.498 123.315,170.498C129.611,170.498 134.733,175.607 134.733,181.887L134.733,210.335C134.733,239.22 158.252,262.719 187.16,262.719C216.068,262.719 239.586,239.219 239.586,210.334L239.586,190.243C239.586,179.355 248.461,170.498 259.37,170.498C282.246,170.498 300.857,151.9 300.857,129.04L300.857,124.224C300.857,115.25 308.173,107.95 317.167,107.95L317.928,107.95L317.928,421.807C317.929,440.385 333.053,455.5 351.643,455.5ZM347.929,197.001C347.929,168.135 368.808,145.909 384.721,145.909C403.071,145.909 423.517,177.306 423.517,222.36C423.517,267.414 403.071,298.811 384.721,298.811C365.937,298.811 347.929,275.614 347.929,250.702C347.711,249.69 347.929,222.04 347.929,197.001ZM451.76,329.167C433.436,355.78 409.629,370.438 384.722,370.438C372.812,370.438 361.149,367.114 350.057,360.558C349.366,360.15 348.652,359.822 347.93,359.536L347.93,312.938C358.575,323.127 371.183,328.812 384.722,328.812C423.3,328.812 453.518,282.053 453.518,222.361C453.518,162.669 423.299,115.91 384.722,115.91C371.194,115.91 358.587,121.552 347.93,131.758L347.93,104.564C361.146,99.33 371.514,88.438 376.031,74.889C378.904,74.493 381.824,74.285 384.722,74.285C409.629,74.285 433.436,88.942 451.76,115.556C471.26,143.877 482,181.808 482,222.36C482,262.912 471.26,300.843 451.76,329.167Z" style="fill:rgb(155,89,182);fill-rule:nonzero;"/>
                <path id="XMLID_786_" d="M129.177,334.402C120.893,334.402 114.177,341.118 114.177,349.402L114.177,410.592C114.177,418.876 120.893,425.592 129.177,425.592C137.461,425.592 144.177,418.876 144.177,410.592L144.177,349.402C144.177,341.118 137.461,334.402 129.177,334.402Z" style="fill:rgb(155,89,182);fill-rule:nonzero;"/>
                <path id="XMLID_785_" d="M200.396,278.777C192.112,278.777 185.396,285.493 185.396,293.777L185.396,410.592C185.396,418.876 192.112,425.592 200.396,425.592C208.68,425.592 215.396,418.876 215.396,410.592L215.396,293.777C215.396,285.493 208.681,278.777 200.396,278.777Z" style="fill:rgb(155,89,182);fill-rule:nonzero;"/>
                <path id="XMLID_784_" d="M271.617,219.082C263.333,219.082 256.617,225.798 256.617,234.082L256.617,410.593C256.617,418.877 263.333,425.593 271.617,425.593C279.901,425.593 286.617,418.877 286.617,410.593L286.617,234.082C286.617,225.797 279.901,219.082 271.617,219.082Z" style="fill:rgb(155,89,182);fill-rule:nonzero;"/>
            </g>
        </g>
    </g>
</svg>
