<?xml version="1.0" encoding="UTF-8" standalone="no"?>
<!DOCTYPE svg PUBLIC "-//W3C//DTD SVG 1.1//EN" "http://www.w3.org/Graphics/SVG/1.1/DTD/svg11.dtd">
<svg width="100%" height="100%" viewBox="0 0 1024 1024" version="1.1" xmlns="http://www.w3.org/2000/svg" xmlns:xlink="http://www.w3.org/1999/xlink" xml:space="preserve" xmlns:serif="http://www.serif.com/" style="fill-rule:evenodd;clip-rule:evenodd;stroke-linejoin:round;stroke-miterlimit:2;">
    <g transform="matrix(2,0,0,2,0,0)">
        <g>
            <g>
                <path d="M254.308,187.218C231.491,176.951 215.005,169.533 215.005,140.307L215.005,89.362L217.495,89.362C223.017,89.362 227.495,84.884 227.495,79.362L227.495,32.677C227.496,14.659 212.845,0 194.837,0L121.2,0C103.192,0 88.542,14.659 88.542,32.677L88.542,79.363C88.542,84.885 93.02,89.363 98.542,89.363L101.032,89.363L101.032,140.307C101.032,169.534 84.547,176.952 61.729,187.218C30.553,201.246 -8.245,218.704 3.737,300.827L30.301,482.969C32.78,500.062 45.258,512 60.647,512L255.39,512C270.779,512 283.257,500.062 285.735,482.978L312.3,300.828C324.282,218.704 285.484,201.246 254.308,187.218ZM108.541,32.677C108.541,25.687 114.22,20 121.199,20L194.837,20C201.816,20 207.495,25.687 207.495,32.677L207.495,69.363L108.541,69.363L108.541,32.677ZM292.509,297.94L265.943,480.1C265.084,486.023 261.488,492 255.39,492L60.647,492C54.549,492 50.954,486.022 50.093,480.091L23.528,297.94C13.724,230.75 39.774,219.028 69.936,205.457C93.886,194.68 121.032,182.465 121.032,140.307L121.032,89.362L195.006,89.362L195.006,140.306C195.006,182.464 222.152,194.679 246.102,205.456C276.264,219.028 302.313,230.75 292.509,297.94Z" style="fill:rgb(155,89,182);fill-rule:nonzero;"/>
                <path d="M219.705,401.293L96.332,401.293C82.478,401.293 71.208,412.557 71.208,426.401L71.208,442.841C71.208,456.686 82.479,467.949 96.332,467.949L219.704,467.949C233.558,467.949 244.828,456.685 244.828,442.841L244.828,426.401C244.829,412.557 233.558,401.293 219.705,401.293ZM224.829,442.842C224.829,445.611 222.482,447.95 219.705,447.95L96.332,447.95C93.555,447.95 91.208,445.61 91.208,442.842L91.208,426.402C91.208,423.632 93.555,421.294 96.332,421.294L219.704,421.294C222.481,421.294 224.828,423.633 224.828,426.402L224.828,442.842L224.829,442.842Z" style="fill:rgb(155,89,182);fill-rule:nonzero;"/>
                <path d="M508.081,346.389C506.182,344.175 503.409,342.901 500.491,342.901L338.771,342.901C335.853,342.901 333.082,344.175 331.181,346.389C329.282,348.604 328.444,351.537 328.887,354.421L338.448,416.557C338.461,416.632 351.829,503.521 351.829,503.521C352.58,508.4 356.777,512 361.713,512L477.55,512C482.486,512 486.683,508.399 487.434,503.521L510.375,354.421C510.818,351.537 509.98,348.604 508.081,346.389ZM488.834,362.9L481.656,409.55C464.971,417.676 440.885,416.676 426.021,406.54C406.759,393.432 378.506,391.138 356.08,399.637L350.427,362.901L488.834,362.901L488.834,362.9ZM468.97,492L370.291,492L359.218,420.034C375.905,411.97 399.934,412.981 414.761,423.069C426.449,431.04 441.449,435.025 456.449,435.025C463.825,435.025 471.199,434.056 478.182,432.128L468.97,492Z" style="fill:rgb(155,89,182);fill-rule:nonzero;"/>
                <path d="M234.266,226.466C182.959,200.355 133.078,200.355 81.764,226.47C65.124,234.954 54.642,240.688 49.055,251.2C43.643,261.383 44.166,273.269 47.269,294.481L52.65,331.274C53.368,336.185 57.581,339.827 62.545,339.827L113.156,339.827C118.678,339.827 123.156,335.349 123.156,329.827C123.156,324.305 118.678,319.827 113.156,319.827L71.188,319.827L67.058,291.587C64.704,275.492 63.953,265.785 66.715,260.587C69.431,255.477 77.645,251.02 90.843,244.29C136.045,221.284 179.992,221.285 225.187,244.287C238.385,251.016 246.594,255.471 249.309,260.584C252.068,265.778 251.321,275.49 248.979,291.587L244.849,319.827L202.881,319.827C197.359,319.827 192.881,324.305 192.881,329.827C192.881,335.349 197.359,339.827 202.881,339.827L253.492,339.827C258.456,339.827 262.669,336.185 263.387,331.274L268.769,294.473C271.856,273.26 272.374,261.373 266.973,251.202C261.387,240.685 250.908,234.951 234.266,226.466Z" style="fill:rgb(155,89,182);fill-rule:nonzero;"/>
                <path d="M158.076,339.827C163.598,339.827 168.048,335.349 168.048,329.827C168.048,324.305 163.542,319.827 158.02,319.827C152.498,319.827 148.02,324.305 148.02,329.827C148.02,335.349 152.498,339.827 158.02,339.827L158.076,339.827Z" style="fill:rgb(155,89,182);fill-rule:nonzero;"/>
            </g>
        </g>
    </g>
</svg>
