<?xml version="1.0" encoding="UTF-8" standalone="no"?>
<!DOCTYPE svg PUBLIC "-//W3C//DTD SVG 1.1//EN" "http://www.w3.org/Graphics/SVG/1.1/DTD/svg11.dtd">
<svg width="100%" height="100%" viewBox="0 0 1024 1024" version="1.1" xmlns="http://www.w3.org/2000/svg" xmlns:xlink="http://www.w3.org/1999/xlink" xml:space="preserve" xmlns:serif="http://www.serif.com/" style="fill-rule:evenodd;clip-rule:evenodd;stroke-linejoin:round;stroke-miterlimit:2;">
    <g transform="matrix(2,0,0,2,0,0)">
        <g>
            <g>
                <path d="M384,136L352,136L352,112.048C361.696,104.72 368,93.04 368,80C368,61.416 355.24,45.44 337.336,41.168C332.488,37.184 326.8,34.432 320.624,33.088C310.568,18.752 291.424,12.248 274.696,18.384C263.304,8.016 246.312,5.024 232,11.456C220.32,6.216 206.848,7.072 196,13.488C189.896,9.88 183.088,8 176,8C163.456,8 151.68,14.016 144.168,24C131.104,23.784 118.864,30.416 111.376,41.096C93.24,45.08 80,61.168 80,80C80,93.056 86.296,104.792 96,112.136L96,441.136C82.24,444.712 72,457.128 72,472C72,489.648 86.352,504 104,504L344,504C361.648,504 376,489.648 376,472C376,457.128 365.76,444.712 352,441.136L352,384L384,384C414.88,384 440,358.872 440,328L440,192C440,161.12 414.88,136 384,136ZM352,184L384,184C388.408,184 392,187.592 392,192L392,328C392,332.416 388.408,336 384,336L352,336L352,184ZM117.176,56.328C119.704,56.024 121.944,54.536 123.2,52.32C127.88,44.024 137.328,39.008 146.32,40.248C146.344,40.248 147.144,40.36 147.16,40.36C150.408,40.784 153.576,39.2 155.176,36.352C159.464,28.728 167.44,24 176,24C181.4,24 186.576,25.872 190.976,29.424C193.904,31.792 198.104,31.792 201.032,29.424C208.792,23.16 219.168,22.216 227.976,27.352C230.472,28.8 233.536,28.8 236.032,27.352C246.48,21.264 259.272,23.992 266.584,33.032C269.008,36.032 273.232,36.888 276.632,35.032C288.504,28.576 302.592,33.296 308.8,44.312C310.056,46.536 312.296,48.024 314.824,48.328C319.912,48.936 324.544,51.048 328.224,54.448C329.344,55.48 330.736,56.176 332.24,56.448C343.688,58.496 352,68.4 352,80C352,93.232 341.232,104 328,104C326.056,104 323.984,103.664 321.48,102.952C319.352,102.352 317.064,102.656 315.16,103.792C313.256,104.936 311.92,106.816 311.464,108.984C309.96,116.104 305.064,122.28 298.368,125.512C294.64,127.32 292.904,131.672 294.368,135.544C295.456,138.416 296,141.256 296,144C296,149.4 294.128,154.576 290.576,158.976C288.208,161.912 288.208,166.096 290.576,169.032C294.128,173.424 296,178.6 296,184C296,197.232 285.232,208 272,208C258.768,208 248,197.232 248,184C248,178.6 249.88,173.424 253.432,169.024C255.8,166.096 255.792,161.904 253.432,158.976C251.24,156.256 249.696,153.208 248.856,149.912C247.952,146.36 244.752,143.896 241.112,143.896L240.856,143.896C240.368,143.912 239.912,143.96 240,144C233.088,144 226.704,141.048 222.016,135.696C218.984,132.216 213.008,132.216 209.976,135.696C205.296,141.048 198.912,144 192,144C183.44,144 175.464,139.272 171.176,131.656C169.56,128.776 165.608,127.312 162.344,127.752C161.576,127.864 160.808,128 160,128C148.736,128 138.864,120.008 136.536,108.992C136.072,106.824 134.736,104.944 132.84,103.8C130.944,102.656 128.648,102.36 126.52,102.96C124.016,103.664 121.944,104 120,104C106.768,104 96,93.232 96,80C96,67.936 105.104,57.76 117.176,56.328ZM123.288,119.84C129.512,134.208 143.904,144 160,144L160.176,144C167.68,153.984 179.456,160 192,160C200.688,160 209.104,157.096 216,151.856C221.656,156.152 228.328,158.88 235.336,159.72C235.968,161.184 236.68,162.6 237.496,163.984C233.888,170.096 232,176.912 232,184C232,206.056 249.944,224 272,224C294.056,224 312,206.056 312,184C312,176.912 310.12,170.104 306.512,164C310.12,157.896 312,151.088 312,144C312,141.488 311.744,138.952 311.232,136.424C317.136,132.192 321.808,126.424 324.696,119.84C328.592,120.2 332.376,119.936 336.008,119.208L336.008,440L112,440L112,119.272C115.616,119.976 119.392,120.224 123.288,119.84ZM360,472C360,480.824 352.824,488 344,488L104,488C95.176,488 88,480.824 88,472C88,463.176 95.176,456 104,456L344,456C352.824,456 360,463.176 360,472ZM424,328C424,350.056 406.056,368 384,368L352,368L352,352L384,352C397.232,352 408,341.232 408,328L408,192C408,178.768 397.232,168 384,168L352,168L352,152L384,152C406.056,152 424,169.944 424,192L424,328Z" style="fill:rgb(155,89,182);fill-rule:nonzero;"/>
                <path d="M152,424C165.232,424 176,413.232 176,400L176,256C176,242.768 165.232,232 152,232C138.768,232 128,242.768 128,256L128,400C128,413.232 138.768,424 152,424ZM144,256C144,251.592 147.592,248 152,248C156.408,248 160,251.592 160,256L160,400C160,404.416 156.408,408 152,408C147.592,408 144,404.416 144,400L144,256Z" style="fill:rgb(155,89,182);fill-rule:nonzero;"/>
                <path d="M224,424C237.232,424 248,413.232 248,400L248,256C248,242.768 237.232,232 224,232C210.768,232 200,242.768 200,256L200,400C200,413.232 210.768,424 224,424ZM216,256C216,251.592 219.592,248 224,248C228.408,248 232,251.592 232,256L232,400C232,404.416 228.408,408 224,408C219.592,408 216,404.416 216,400L216,256Z" style="fill:rgb(155,89,182);fill-rule:nonzero;"/>
                <path d="M296,424C309.232,424 320,413.232 320,400L320,256C320,242.768 309.232,232 296,232C282.768,232 272,242.768 272,256L272,400C272,413.232 282.768,424 296,424ZM288,256C288,251.592 291.592,248 296,248C300.408,248 304,251.592 304,256L304,400C304,404.416 300.408,408 296,408C291.592,408 288,404.416 288,400L288,256Z" style="fill:rgb(155,89,182);fill-rule:nonzero;"/>
            </g>
        </g>
    </g>
</svg>
