<?xml version="1.0" encoding="UTF-8" standalone="no"?>
<!DOCTYPE svg PUBLIC "-//W3C//DTD SVG 1.1//EN" "http://www.w3.org/Graphics/SVG/1.1/DTD/svg11.dtd">
<svg width="100%" height="100%" viewBox="0 0 1024 1024" version="1.1" xmlns="http://www.w3.org/2000/svg" xmlns:xlink="http://www.w3.org/1999/xlink" xml:space="preserve" xmlns:serif="http://www.serif.com/" style="fill-rule:evenodd;clip-rule:evenodd;stroke-linejoin:round;stroke-miterlimit:2;">
    <g transform="matrix(2,0,0,2,0,0)">
        <g>
            <path id="XMLID_1435_" d="M485.119,345.819L271,221.738L271,212.506C271,201.978 277.008,192.185 286.68,186.949C308.471,175.154 321.423,152.435 320.483,127.659C319.211,94.168 291.984,66.936 258.5,65.665C240.782,64.985 224.003,71.381 211.253,83.654C198.495,95.936 191.469,112.452 191.469,130.158C191.469,138.442 198.185,145.158 206.469,145.158C214.753,145.158 221.469,138.442 221.469,130.158C221.469,120.68 225.23,111.841 232.059,105.266C238.88,98.7 247.855,95.273 257.361,95.643C275.266,96.323 289.824,110.886 290.505,128.797C291.009,142.074 284.071,154.247 272.4,160.566C253.032,171.05 241,190.952 241,212.506L241,221.738L26.881,345.819C10.3,355.428 0,373.304 0,392.47C0,422.199 24.182,446.384 53.906,446.384L458.094,446.384C487.818,446.384 512,422.197 512,392.469C512,373.303 501.7,355.428 485.119,345.819ZM458.094,416.384L53.906,416.384C40.724,416.384 30,405.655 30,392.469C30,383.967 34.568,376.038 41.923,371.777L256,247.72L470.077,371.777C477.431,376.039 482,383.967 482,392.47C482,405.656 471.276,416.384 458.094,416.384Z" style="fill:rgb(155,89,182);fill-rule:nonzero;"/>
        </g>
    </g>
</svg>
