<?xml version="1.0" encoding="UTF-8" standalone="no"?>
<!DOCTYPE svg PUBLIC "-//W3C//DTD SVG 1.1//EN" "http://www.w3.org/Graphics/SVG/1.1/DTD/svg11.dtd">
<svg width="100%" height="100%" viewBox="0 0 1024 1024" version="1.1" xmlns="http://www.w3.org/2000/svg" xmlns:xlink="http://www.w3.org/1999/xlink" xml:space="preserve" xmlns:serif="http://www.serif.com/" style="fill-rule:evenodd;clip-rule:evenodd;stroke-linejoin:round;stroke-miterlimit:2;">
    <g transform="matrix(2,0,0,2,0,0)">
        <g>
            <g>
                <path d="M416.359,261.853C416.359,243.342 412.336,225.538 404.399,208.935C388.865,176.434 386.528,140.342 397.817,107.306C400.13,100.538 403.77,93.838 399.132,87.353C396.798,84.088 393.007,82.14 388.991,82.14L326.89,82.14L331.879,57.876C332.648,54.139 334.809,50.901 337.965,48.759L389.469,13.799C392.895,11.474 393.788,6.811 391.463,3.384C389.137,-0.042 384.474,-0.935 381.048,1.391L329.542,36.35C323.135,40.699 318.749,47.271 317.19,54.856L311.58,82.14L234.845,82.14L272.533,44.519C274.782,42.283 276.033,39.181 275.967,36.005C275.901,32.841 274.526,29.804 272.198,27.678C230.539,-10.433 166.583,-9.021 126.594,30.892C126.591,30.895 126.589,30.898 126.586,30.9L126.581,30.905C86.597,70.828 85.189,134.67 123.398,176.276C125.529,178.581 128.559,179.941 131.707,180.006C131.788,180.008 131.868,180.008 131.949,180.008C135.024,180.008 138.019,178.777 140.209,176.6L189.201,127.7C194.48,155.112 190.9,183.842 178.667,210.212C175.774,216.449 173.395,222.968 171.596,229.589C170.51,233.585 172.87,237.705 176.866,238.791C180.863,239.875 184.982,237.517 186.068,233.521C187.646,227.714 189.733,221.995 192.272,216.522C207.913,182.806 210.79,145.557 200.551,111.029C199.545,107.635 197.176,100.62 195.981,97.135C198.893,96.432 305.363,97.873 308.495,97.135L296.846,153.789C289.037,157.491 282.108,161.003 272.701,163.225C260.928,166.007 248.661,165.961 235.203,163.088C231.795,162.361 228.213,163.094 225.373,165.103C222.534,167.109 220.648,170.237 220.198,173.685C217.99,190.563 213.17,207.101 205.872,222.842C200.183,235.124 197.299,248.25 197.299,261.857C197.299,313.481 239.706,355.48 291.831,355.48C343.957,355.48 386.364,313.481 386.364,261.857C386.364,247.854 383.324,234.4 377.331,221.867C375.497,218.033 373.787,214.094 372.25,210.16C370.743,206.301 366.393,204.394 362.538,205.903C358.681,207.41 356.774,211.758 358.282,215.616C359.953,219.893 361.81,224.174 363.803,228.339C368.823,238.834 371.367,250.111 371.367,261.857C371.367,305.211 335.688,340.483 291.832,340.483C247.977,340.483 212.297,305.212 212.297,261.857C212.297,250.442 214.714,239.437 219.48,229.148C227.035,212.852 232.15,195.754 234.701,178.287C249.214,181.049 263.145,180.893 276.146,177.823C282.622,176.296 288.071,174.26 293.088,172.073L272.029,274.49C271.195,278.547 273.807,282.51 277.863,283.345C278.373,283.449 278.881,283.5 279.382,283.5C282.866,283.5 285.989,281.057 286.718,277.51L309.997,164.294C316.108,161.7 322.712,159.513 331.289,158.36C336.084,157.718 341.004,157.472 345.942,157.623C346.281,165.274 347.122,172.971 348.445,180.534C349.158,184.614 353.041,187.347 357.123,186.629C361.202,185.916 363.932,182.03 363.218,177.951C361.883,170.318 361.085,162.54 360.845,154.834C360.643,148.303 355.556,143.107 349.014,142.745C342.386,142.38 335.751,142.632 329.295,143.496C323.332,144.298 318.192,145.521 313.557,146.981L323.806,97.136L385.444,97.136L383.626,102.456C371.06,139.227 373.632,179.338 390.87,215.402C397.832,229.969 401.363,245.598 401.363,261.852C401.363,321.747 352.229,370.476 291.835,370.476C263.296,370.476 236.276,359.65 215.753,339.991C195.297,320.397 183.448,294.118 182.386,265.994C182.23,261.856 178.776,258.653 174.609,258.783C170.471,258.94 167.243,262.422 167.4,266.56C168.608,298.595 182.097,328.519 205.378,350.821C223.224,367.915 245.389,379.125 269.336,383.454L269.336,465.168C269.336,466.5 268.598,467.698 267.409,468.296L223.773,490.229C218.988,492.629 216.507,497.943 217.74,503.152C218.973,508.361 223.572,512 228.924,512L354.74,512C360.097,512 364.701,508.36 365.933,503.149C367.166,497.942 364.686,492.629 359.907,490.232L316.264,468.3C315.07,467.698 314.328,466.498 314.328,465.168L314.328,383.448C372.291,372.906 416.359,322.396 416.359,261.853ZM132.122,47.023L179.046,93.851L179.529,95.282L112.396,87.752C115.304,73.106 121.888,59.053 132.122,47.023ZM132.111,163.494C117.171,145.935 110.079,124.191 110.706,102.653L184.746,110.958L132.111,163.494ZM188.541,82.14L142.738,36.431C154.798,26.215 168.885,19.644 183.566,16.745L190.928,82.141L188.541,82.141L188.541,82.14ZM213.616,82.14L206.02,82.14L198.469,15.062C220.045,14.435 241.829,21.507 259.425,36.411L213.616,82.14ZM339.979,497.003L243.691,497.003L274.144,481.697C280.428,478.537 284.333,472.203 284.333,465.169L284.333,385.244C286.821,385.391 289.322,385.473 291.833,385.473C294.351,385.473 296.848,385.39 299.33,385.243L299.33,465.169C299.33,472.195 303.231,478.526 309.52,481.697L339.979,497.003Z" style="fill:rgb(155,89,182);fill-rule:nonzero;"/>
            </g>
        </g>
    </g>
</svg>
