<?xml version="1.0" encoding="UTF-8" standalone="no"?>
<!DOCTYPE svg PUBLIC "-//W3C//DTD SVG 1.1//EN" "http://www.w3.org/Graphics/SVG/1.1/DTD/svg11.dtd">
<svg width="100%" height="100%" viewBox="0 0 1024 1024" version="1.1" xmlns="http://www.w3.org/2000/svg" xmlns:xlink="http://www.w3.org/1999/xlink" xml:space="preserve" xmlns:serif="http://www.serif.com/" style="fill-rule:evenodd;clip-rule:evenodd;stroke-linejoin:round;stroke-miterlimit:2;">
    <g transform="matrix(2,0,0,2,0,0)">
        <g>
            <g id="XMLID_1399_">
                <g id="XMLID_883_">
                    <path id="XMLID_1179_" d="M266.334,88.249L266.334,10C266.334,4.477 261.856,0 256.334,0C250.811,0 246.334,4.477 246.334,10L246.334,88.249C139.578,93.479 54.334,181.97 54.334,290C54.334,401.383 144.951,492 256.334,492C367.717,492 458.334,401.383 458.334,290C458.333,181.971 373.089,93.479 266.334,88.249ZM404.19,184L346.92,184C343.022,171.769 338.421,160.289 333.158,149.764C326.628,136.704 319.301,125.582 311.364,116.512C349.106,128.511 381.547,152.505 404.19,184ZM416.694,376L352.502,376C358.221,352.4 361.544,326.667 362.208,300L438.055,300C436.565,327.366 429.002,353.141 416.694,376ZM172.913,333.808C172.254,328.325 167.279,324.406 161.792,325.072C156.309,325.73 152.397,330.71 153.056,336.193C154.707,349.942 157.121,363.289 160.212,376.001L95.972,376.001C83.663,353.142 76.101,327.367 74.611,300.001L115.333,300.001C120.856,300.001 125.333,295.523 125.333,290.001C125.333,284.479 120.856,280.001 115.333,280.001L74.612,280.001C76.101,252.635 83.664,226.86 95.973,204.001L160.213,204.001C157.116,216.737 154.698,230.111 153.047,243.889C152.39,249.373 156.302,254.351 161.786,255.008C167.271,255.666 172.248,251.753 172.905,246.27C174.695,231.339 177.37,217.172 180.789,204.001L246.335,204.001L246.335,280.001L205.336,280.001C199.813,280.001 195.336,284.479 195.336,290.001C195.336,295.523 199.813,300.001 205.336,300.001L246.335,300.001L246.335,376.001L180.791,376.001C177.376,362.851 174.703,348.71 172.913,333.808ZM266.334,184L266.334,109.299C290.421,115.515 311.814,143.798 325.717,184L266.334,184ZM331.756,204C337.748,226.98 341.457,252.806 342.193,280L266.333,280L266.333,204L331.756,204ZM246.333,109.303L246.333,184L186.808,184C200.85,143.367 222.495,115.48 246.333,109.303ZM246.333,396L246.333,470.696C222.498,464.518 200.852,436.631 186.809,396L246.333,396ZM266.334,470.701L266.334,396L325.717,396C311.814,436.202 290.421,464.485 266.334,470.701ZM266.334,376L266.334,300L342.194,300C341.458,327.194 337.749,353.02 331.757,376L266.334,376ZM362.208,280C361.544,253.333 358.221,227.6 352.502,204L416.694,204C429.003,226.859 436.565,252.634 438.055,280L362.208,280ZM201.396,116.481C196.687,121.821 192.199,127.867 187.988,134.595C179.228,148.589 171.737,165.362 165.802,184L108.476,184C131.138,152.479 163.614,128.47 201.396,116.481ZM108.476,396L165.803,396C171.742,414.65 179.238,431.432 188.004,445.431C192.211,452.149 196.693,458.186 201.396,463.519C163.614,451.53 131.138,427.521 108.476,396ZM311.365,463.488C319.303,454.418 326.629,443.296 333.159,430.236C338.422,419.711 343.022,408.231 346.921,396L404.191,396C381.547,427.495 349.106,451.489 311.365,463.488Z" style="fill:rgb(155,89,182);fill-rule:nonzero;"/>
                    <path id="XMLID_1206_" d="M50.333,412C44.81,412 40.333,416.478 40.333,422L40.333,435.333C40.333,440.855 44.81,445.333 50.333,445.333C55.856,445.333 60.333,440.855 60.333,435.333L60.333,422C60.333,416.478 55.856,412 50.333,412Z" style="fill:rgb(155,89,182);fill-rule:nonzero;"/>
                    <path id="XMLID_1219_" d="M50.333,478.667C44.81,478.667 40.333,483.145 40.333,488.667L40.333,502C40.333,507.522 44.81,512 50.333,512C55.856,512 60.333,507.522 60.333,502L60.333,488.667C60.333,483.145 55.856,478.667 50.333,478.667Z" style="fill:rgb(155,89,182);fill-rule:nonzero;"/>
                    <path id="XMLID_1221_" d="M90.333,452L77,452C71.477,452 67,456.478 67,462C67,467.522 71.477,472 77,472L90.334,472C95.857,472 100.334,467.522 100.334,462C100.334,456.478 95.856,452 90.333,452Z" style="fill:rgb(155,89,182);fill-rule:nonzero;"/>
                    <path id="XMLID_1222_" d="M23.666,452L10.333,452C4.81,452 0.333,456.478 0.333,462C0.333,467.522 4.81,472 10.333,472L23.666,472C29.189,472 33.666,467.522 33.666,462C33.666,456.478 29.189,452 23.666,452Z" style="fill:rgb(155,89,182);fill-rule:nonzero;"/>
                    <path id="XMLID_1223_" d="M461.667,54C456.145,54 451.667,58.478 451.667,64L451.667,77.333C451.667,82.855 456.145,87.333 461.667,87.333C467.189,87.333 471.667,82.855 471.667,77.333L471.667,64C471.667,58.478 467.189,54 461.667,54Z" style="fill:rgb(155,89,182);fill-rule:nonzero;"/>
                    <path id="XMLID_1224_" d="M461.667,120.667C456.145,120.667 451.667,125.145 451.667,130.667L451.667,144C451.667,149.523 456.145,154 461.667,154C467.189,154 471.667,149.523 471.667,144L471.667,130.667C471.667,125.145 467.189,120.667 461.667,120.667Z" style="fill:rgb(155,89,182);fill-rule:nonzero;"/>
                    <path id="XMLID_1234_" d="M501.667,94L488.333,94C482.81,94 478.333,98.478 478.333,104C478.333,109.522 482.81,114 488.333,114L501.667,114C507.189,114 511.667,109.522 511.667,104C511.667,98.478 507.189,94 501.667,94Z" style="fill:rgb(155,89,182);fill-rule:nonzero;"/>
                    <path id="XMLID_1235_" d="M421.667,114L435,114C440.522,114 445,109.522 445,104C445,98.478 440.522,94 435,94L421.667,94C416.145,94 411.667,98.478 411.667,104C411.667,109.522 416.144,114 421.667,114Z" style="fill:rgb(155,89,182);fill-rule:nonzero;"/>
                    <path id="XMLID_1238_" d="M160.329,280C157.699,280 155.119,281.069 153.259,282.93C151.399,284.79 150.329,287.37 150.329,290C150.329,292.63 151.399,295.21 153.259,297.069C155.129,298.929 157.699,300 160.329,300C162.959,300 165.539,298.93 167.399,297.069C169.269,295.21 170.329,292.63 170.329,290C170.329,287.37 169.269,284.79 167.399,282.93C165.54,281.069 162.969,280 160.329,280Z" style="fill:rgb(118,106,106);fill-rule:nonzero;"/>
                </g>
            </g>
        </g>
    </g>
</svg>
