<?xml version="1.0" encoding="UTF-8" standalone="no"?>
<!DOCTYPE svg PUBLIC "-//W3C//DTD SVG 1.1//EN" "http://www.w3.org/Graphics/SVG/1.1/DTD/svg11.dtd">
<svg width="100%" height="100%" viewBox="0 0 1024 1024" version="1.1" xmlns="http://www.w3.org/2000/svg" xmlns:xlink="http://www.w3.org/1999/xlink" xml:space="preserve" xmlns:serif="http://www.serif.com/" style="fill-rule:evenodd;clip-rule:evenodd;stroke-linejoin:round;stroke-miterlimit:2;">
    <g transform="matrix(2,0,0,2,0,0)">
        <g>
            <path d="M380.591,205.539L410.673,203.633C410.724,203.629 410.778,203.625 410.833,203.621C432.271,201.812 451.513,190.582 463.63,172.801L487.411,137.91C508.111,107.535 516.13,70.847 509.986,34.609C508.779,27.492 505.138,20.933 499.74,16.148C494.337,11.359 487.392,8.531 480.181,8.187C443.454,6.429 408.005,18.792 380.333,42.984L348.544,70.777C332.345,84.937 323.501,105.386 324.274,126.89C324.278,126.941 324.278,126.996 324.282,127.05L325.997,157.14C326.665,168.871 322.364,180.445 314.22,188.875L65.867,444.008C59.219,450.942 55.785,460.454 56.203,470.794C56.664,482.176 61.887,493.356 70.176,500.704C77.664,507.34 87.957,511.122 98.246,511.122C99.348,511.122 100.449,511.079 101.547,510.989C111.864,510.165 120.899,505.618 127.016,498.141L350.481,221.055C357.892,211.937 368.868,206.281 380.591,205.539ZM338.552,211.398L115.106,488.462C111.692,492.633 106.442,495.204 100.324,495.692C93.047,496.274 85.586,493.852 80.36,489.219C75.133,484.583 71.836,477.465 71.543,470.172C71.293,464.043 73.211,458.524 76.906,454.672L325.239,199.558C336.372,188.039 342.231,172.262 341.325,156.269L339.61,126.257C339.028,109.425 345.962,93.421 358.645,82.332L390.435,54.539C415.107,32.972 446.724,21.96 479.45,23.515C483.177,23.695 486.763,25.156 489.556,27.632C492.349,30.105 494.228,33.496 494.853,37.171C500.329,69.48 493.181,102.183 474.728,129.261L450.946,164.156C441.458,178.078 426.4,186.879 409.618,188.32L379.618,190.219C363.634,191.234 348.673,198.945 338.552,211.398Z" style="fill:rgb(155,89,182);fill-rule:nonzero;"/>
            <path d="M497.822,442.071L331.302,290.402C328.169,287.547 323.317,287.774 320.458,290.906C317.606,294.039 317.833,298.895 320.966,301.75L487.443,453.383C491.404,457.043 493.65,462.438 493.771,468.571C493.915,475.868 491.052,483.169 486.111,488.11C481.173,493.047 473.884,495.919 466.571,495.77C460.439,495.649 455.044,493.403 451.423,489.485L303.04,326.578C300.184,323.442 295.329,323.219 292.196,326.07C289.063,328.926 288.837,333.781 291.692,336.914L440.11,499.86C446.634,506.915 455.923,510.915 466.271,511.118C466.54,511.122 466.806,511.126 467.075,511.126C478.197,511.126 489.318,506.614 496.962,498.965C504.798,491.129 509.341,479.657 509.115,468.27C508.911,457.922 504.915,448.633 497.822,442.071Z" style="fill:rgb(155,89,182);fill-rule:nonzero;"/>
            <path d="M92.61,204.086C105.313,215.789 121.817,222.461 139.082,222.875C139.137,222.879 139.192,222.879 139.243,222.879L169.383,222.973C181.133,223.008 192.426,227.996 200.352,236.633L213.629,251.207C215.145,252.871 217.219,253.715 219.305,253.715C221.149,253.715 223.001,253.055 224.469,251.715C227.606,248.859 227.833,244.004 224.977,240.871L211.68,226.277C200.852,214.473 185.454,207.676 169.434,207.621L139.375,207.527C126.02,207.187 113.25,202.074 103.356,193.117L16.008,89.281C15.117,88.218 15.184,86.679 16.164,85.699C16.836,85.023 17.625,84.925 18.035,84.925C18.445,84.925 19.234,85.023 19.91,85.699L99.418,165.211C107.278,173.07 120.067,173.07 127.926,165.207L137.27,155.867L137.27,155.863L153.86,139.273C153.86,139.273 153.864,139.273 153.864,139.269L153.868,139.265L163.207,129.925C171.067,122.066 171.067,109.277 163.207,101.418L83.699,21.91C82.668,20.878 82.668,19.195 83.699,18.163C84.68,17.183 86.219,17.117 87.281,18.007L191.118,105.359C200.079,115.25 205.192,128.023 205.532,141.375L205.622,171.437C205.676,187.453 212.477,202.851 224.297,213.703L238.524,226.66C241.661,229.516 246.512,229.289 249.368,226.156C252.219,223.019 251.993,218.168 248.86,215.312L234.657,202.375C225.997,194.43 221.012,183.133 220.973,171.387L220.879,141.246C220.879,141.191 220.879,141.136 220.876,141.082C220.461,123.816 213.79,107.312 202.086,94.609C201.868,94.371 201.633,94.144 201.383,93.933L97.16,6.261C89.957,0.199 79.504,0.652 72.848,7.308C65.828,14.328 65.828,25.746 72.848,32.761L152.356,112.273C154.231,114.148 154.231,117.199 152.356,119.074L148.438,122.988L59.824,34.378C56.828,31.378 51.969,31.378 48.973,34.378C45.977,37.374 45.977,42.234 48.973,45.23L137.586,133.843L131.844,139.582L43.231,50.972C40.234,47.976 35.375,47.976 32.379,50.972C29.379,53.968 29.379,58.828 32.379,61.824L120.989,150.437L117.075,154.355C115.2,156.23 112.149,156.23 110.274,154.355L30.762,74.847C27.363,71.449 22.844,69.574 18.035,69.574C13.227,69.574 8.707,71.449 5.309,74.847C-1.348,81.503 -1.797,91.957 4.262,99.164L91.938,203.383C92.145,203.633 92.371,203.867 92.61,204.086Z" style="fill:rgb(155,89,182);fill-rule:nonzero;"/>
        </g>
    </g>
</svg>
