<?xml version="1.0" encoding="UTF-8" standalone="no"?>
<!DOCTYPE svg PUBLIC "-//W3C//DTD SVG 1.1//EN" "http://www.w3.org/Graphics/SVG/1.1/DTD/svg11.dtd">
<svg width="100%" height="100%" viewBox="0 0 1024 1024" version="1.1" xmlns="http://www.w3.org/2000/svg" xmlns:xlink="http://www.w3.org/1999/xlink" xml:space="preserve" xmlns:serif="http://www.serif.com/" style="fill-rule:evenodd;clip-rule:evenodd;stroke-linejoin:round;stroke-miterlimit:2;">
    <g transform="matrix(2,0,0,2,0,0)">
        <g>
            <g>
                <path d="M203.556,345.012L274.266,132.879C276.885,125.02 272.638,116.525 264.779,113.905C256.921,111.286 248.425,115.533 245.805,123.392L175.095,335.525C172.476,343.384 176.723,351.879 184.582,354.499C186.155,355.023 187.755,355.272 189.327,355.272C195.607,355.273 201.46,351.298 203.556,345.012Z" style="fill:rgb(155,89,182);fill-rule:nonzero;"/>
                <path d="M309.533,279.203C334.346,279.203 354.533,259.016 354.533,234.203C354.533,209.39 334.346,189.203 309.533,189.203C284.72,189.203 264.533,209.39 264.533,234.203C264.533,259.016 284.72,279.203 309.533,279.203ZM309.533,219.203C317.804,219.203 324.533,225.932 324.533,234.203C324.533,242.474 317.804,249.203 309.533,249.203C301.262,249.203 294.533,242.474 294.533,234.203C294.533,225.932 301.262,219.203 309.533,219.203Z" style="fill:rgb(155,89,182);fill-rule:nonzero;"/>
                <path d="M139.827,189.203C115.014,189.203 94.827,209.39 94.827,234.203C94.827,259.016 115.014,279.203 139.827,279.203C164.64,279.203 184.827,259.016 184.827,234.203C184.827,209.39 164.641,189.203 139.827,189.203ZM139.827,249.203C131.556,249.203 124.827,242.474 124.827,234.203C124.827,225.932 131.556,219.203 139.827,219.203C148.098,219.203 154.827,225.932 154.827,234.203C154.827,242.474 148.099,249.203 139.827,249.203Z" style="fill:rgb(155,89,182);fill-rule:nonzero;"/>
                <path d="M509,186L456.693,116.257L458.734,101.974C459.401,97.3 457.83,92.584 454.491,89.246L422.671,57.426L454.49,25.606C460.348,19.749 460.348,10.251 454.49,4.393C448.633,-1.464 439.135,-1.464 433.277,4.393L401.458,36.213L369.638,4.393C366.3,1.054 361.584,-0.512 356.91,0.15L208.417,21.363C205.204,21.822 202.227,23.311 199.932,25.606L16.084,209.454C-5.361,230.898 -5.361,265.792 16.084,287.236L171.647,442.8C174.829,445.982 178.313,448.681 182,450.918L182,457C182,487.327 206.673,512 237,512L457,512C487.327,512 512,487.327 512,457L512,195C512,191.755 510.947,188.596 509,186ZM37.297,266.023C27.549,256.275 27.549,240.415 37.297,230.667L217.609,50.355L353.727,30.91L380.244,57.427L359.031,78.64L348.424,68.033C342.567,62.176 333.069,62.176 327.211,68.033C321.353,73.89 321.353,83.388 327.211,89.246L369.638,131.673C372.567,134.602 376.406,136.067 380.244,136.067C384.082,136.067 387.922,134.602 390.85,131.673C396.708,125.816 396.708,116.318 390.85,110.46L380.243,99.853L401.456,78.64L427.973,105.157L408.527,241.275L228.216,421.587C223.494,426.309 217.216,428.909 210.538,428.909C203.86,428.909 197.582,426.308 192.86,421.587L37.297,266.023ZM482,457C482,470.785 470.785,482 457,482L237,482C223.836,482 213.024,471.772 212.075,458.846C225.642,458.47 239.097,453.132 249.428,442.8L433.276,258.952C435.571,256.657 437.06,253.68 437.519,250.467L450.692,158.257L482,200L482,457Z" style="fill:rgb(155,89,182);fill-rule:nonzero;"/>
            </g>
        </g>
    </g>
</svg>
