<?xml version="1.0" encoding="UTF-8" standalone="no"?>
<!DOCTYPE svg PUBLIC "-//W3C//DTD SVG 1.1//EN" "http://www.w3.org/Graphics/SVG/1.1/DTD/svg11.dtd">
<svg width="100%" height="100%" viewBox="0 0 1024 1024" version="1.1" xmlns="http://www.w3.org/2000/svg" xmlns:xlink="http://www.w3.org/1999/xlink" xml:space="preserve" xmlns:serif="http://www.serif.com/" style="fill-rule:evenodd;clip-rule:evenodd;stroke-linejoin:round;stroke-miterlimit:2;">
    <g transform="matrix(2,0,0,2,0,0)">
        <g>
            <g>
                <path d="M511.653,51.674C514.149,40.056 502.758,30.259 491.646,34.499L9.651,218.497C3.85,220.712 0.013,226.272 0.001,232.481C-0.011,238.691 3.804,244.266 9.597,246.503L144.999,298.797L144.999,463.508C144.999,470.456 149.77,476.494 156.529,478.101C163.244,479.698 170.246,476.503 173.394,470.258L229.395,359.131L366.057,460.554C374.37,466.723 386.319,462.799 389.344,452.885C516.942,34.532 511.426,52.725 511.653,51.674ZM392.673,104.392L157.872,271.609L56.845,232.592L392.673,104.392ZM174.998,296.242L379.664,150.487C203.552,336.275 212.75,326.496 211.982,327.53C210.841,329.065 213.967,323.082 174.998,400.411L174.998,296.242ZM366.854,423.787L246.56,334.512L464.068,105.052L366.854,423.787Z" style="fill:rgb(155,89,182);fill-rule:nonzero;"/>
            </g>
        </g>
    </g>
</svg>
