<?xml version="1.0" encoding="UTF-8" standalone="no"?>
<!DOCTYPE svg PUBLIC "-//W3C//DTD SVG 1.1//EN" "http://www.w3.org/Graphics/SVG/1.1/DTD/svg11.dtd">
<svg width="100%" height="100%" viewBox="0 0 1024 1024" version="1.1" xmlns="http://www.w3.org/2000/svg" xmlns:xlink="http://www.w3.org/1999/xlink" xml:space="preserve" xmlns:serif="http://www.serif.com/" style="fill-rule:evenodd;clip-rule:evenodd;stroke-linejoin:round;stroke-miterlimit:2;">
    <g transform="matrix(2,0,0,2,0,0)">
        <g>
            <g>
                <g>
                    <path d="M415.085,250.173C467.56,202.999 471.857,122.219 424.683,69.745C381.417,21.618 308.998,13.442 256.092,50.713C198.417,10.009 118.667,23.767 77.963,81.441C40.614,134.362 48.757,206.855 96.916,250.172C37.078,281.715 -0.269,343.901 0.002,411.542L0.002,466.399C0.002,476.498 8.189,484.685 18.288,484.685L493.714,484.685C503.813,484.685 512,476.498 512,466.399L512,411.542C512.27,343.901 474.923,281.715 415.085,250.173ZM329.142,64.116C379.566,64.06 420.488,104.891 420.544,155.315C420.584,191.276 399.511,223.91 366.719,238.67C365.311,239.31 363.904,239.895 362.478,240.499C357.965,242.32 353.31,243.768 348.562,244.833C347.648,245.035 346.733,245.144 345.801,245.327C340.495,246.344 335.111,246.888 329.709,246.955C327.277,246.955 324.827,246.771 322.394,246.553C321.481,246.553 320.566,246.553 319.652,246.37C309.259,245.146 299.149,242.166 289.755,237.556C289.408,237.391 289.005,237.409 288.658,237.263C286.829,236.386 285.001,235.618 283.373,234.63C283.52,234.447 283.611,234.246 283.757,234.063C292.142,223.289 298.752,211.246 303.34,198.388L303.907,196.852C305.993,190.71 307.613,184.421 308.753,178.035C308.918,177.103 309.046,176.206 309.192,175.201C310.25,168.701 310.806,162.13 310.856,155.544C310.804,148.971 310.248,142.411 309.192,135.923C309.046,134.973 308.918,134.094 308.753,133.089C307.613,126.704 305.993,120.414 303.907,114.273L303.34,112.736C298.752,99.878 292.141,87.835 283.757,77.061C283.61,76.878 283.519,76.677 283.373,76.494C297.265,68.39 313.059,64.117 329.142,64.116ZM91.43,155.545C91.3,105.182 132.022,64.249 182.385,64.119C205.993,64.058 228.705,73.156 245.743,89.497C246.803,90.521 247.846,91.545 248.869,92.605C252.009,95.896 254.906,99.41 257.537,103.119C258.342,104.253 259.073,105.46 259.822,106.63C262.378,110.563 264.621,114.691 266.533,118.973C266.99,120.015 267.337,121.076 267.739,122.118C269.667,126.854 271.184,131.749 272.274,136.746C272.403,137.294 272.439,137.843 272.549,138.41C274.865,149.764 274.865,161.469 272.549,172.823C272.439,173.39 272.402,173.938 272.274,174.487C271.185,179.484 269.668,184.378 267.739,189.115C267.337,190.157 266.989,191.218 266.533,192.259C264.619,196.535 262.376,200.656 259.822,204.584C259.072,205.754 258.342,206.961 257.537,208.095C254.907,211.805 252.009,215.319 248.869,218.609C247.845,219.67 246.802,220.694 245.743,221.717C238.339,228.772 229.803,234.533 220.49,238.759C219.01,239.435 217.51,240.058 215.993,240.588C211.585,242.338 207.049,243.743 202.425,244.793C201.273,245.05 200.084,245.195 198.914,245.397C193.949,246.321 188.914,246.828 183.865,246.915L181.854,246.915C176.804,246.829 171.77,246.321 166.805,245.397C165.635,245.195 164.445,245.05 163.293,244.793C158.669,243.743 154.133,242.338 149.726,240.588C148.208,239.985 146.709,239.363 145.228,238.759C112.513,223.989 91.472,191.439 91.43,155.545ZM329.142,448.114L36.573,448.114L36.573,411.543C36.305,349.58 75.346,294.257 133.815,273.743C165.204,286.811 200.51,286.811 231.9,273.743C238.005,275.974 243.955,278.606 249.71,281.625C253.514,283.581 257.025,285.812 260.682,288.061C263.059,289.541 265.472,290.987 267.758,292.614C271.288,295.119 274.615,297.844 277.889,300.641C279.992,302.47 282.076,304.298 284.05,306.127C287.068,308.979 289.901,311.996 292.626,315.087C294.582,317.318 296.484,319.585 298.295,321.926C300.691,324.998 302.976,328.144 305.097,331.379C306.926,334.122 308.554,336.974 310.162,339.828C311.991,342.972 313.673,346.118 315.208,349.391C316.745,352.664 318.098,356.248 319.414,359.741C320.566,362.776 321.791,365.794 322.742,368.884C324.022,373.125 324.918,377.514 325.813,381.902C326.362,384.498 327.076,387.041 327.477,389.673C328.561,396.913 329.117,404.222 329.141,411.543L329.141,448.114L329.142,448.114ZM475.429,448.114L365.714,448.114L365.714,411.543C365.714,405.82 365.385,400.151 364.873,394.538C364.726,392.892 364.471,391.265 364.288,389.619C363.794,385.577 363.228,381.573 362.459,377.605C362.13,375.911 361.783,374.21 361.417,372.503C360.539,368.431 359.521,364.396 358.363,360.398C357.98,359.081 357.631,357.746 357.23,356.449C352.109,340.08 344.69,324.523 335.196,310.241L334.482,309.199C331.338,304.53 327.979,300.014 324.407,295.65L324.279,295.485C320.622,290.95 316.654,286.543 312.485,282.374L313.235,282.374C318.395,283.052 323.591,283.418 328.796,283.471L329.802,283.471C334.619,283.429 339.429,283.117 344.212,282.539C345.711,282.355 347.193,282.081 348.692,281.843C352.581,281.246 356.421,280.472 360.211,279.521C361.29,279.247 362.388,278.991 363.485,278.68C368.459,277.327 373.345,275.665 378.113,273.707C436.625,294.2 475.701,349.548 475.429,411.544L475.429,448.114Z" style="fill:rgb(155,89,182);fill-rule:nonzero;"/>
                </g>
            </g>
        </g>
    </g>
</svg>
