<?xml version="1.0"?>
<svg xmlns="http://www.w3.org/2000/svg" id="Capa_1" enable-background="new 0 0 512 512" height="512px" viewBox="0 0 512 512" width="512px" class=""><g><g><path d="m254.308 187.218c-22.817-10.267-39.303-17.685-39.303-46.911v-50.945h2.49c5.522 0 10-4.478 10-10v-46.685c.001-18.018-14.65-32.677-32.658-32.677h-73.637c-18.008 0-32.658 14.659-32.658 32.677v46.686c0 5.522 4.478 10 10 10h2.49v50.944c0 29.227-16.485 36.645-39.303 46.911-31.176 14.028-69.974 31.486-57.992 113.609l26.564 182.142c2.479 17.093 14.957 29.031 30.346 29.031h194.743c15.389 0 27.867-11.938 30.345-29.022l26.565-182.15c11.982-82.124-26.816-99.582-57.992-113.61zm-145.767-154.541c0-6.99 5.679-12.677 12.658-12.677h73.638c6.979 0 12.658 5.687 12.658 12.677v36.686h-98.954zm183.968 265.263-26.566 182.16c-.859 5.923-4.455 11.9-10.553 11.9h-194.743c-6.098 0-9.693-5.978-10.554-11.909l-26.565-182.151c-9.804-67.19 16.246-78.912 46.408-92.483 23.95-10.777 51.096-22.992 51.096-65.15v-50.945h73.974v50.944c0 42.158 27.146 54.373 51.096 65.15 30.162 13.572 56.211 25.294 46.407 92.484z" data-original="#000000" class="active-path" data-old_color="#000000" fill="#766A6A"/><path d="m219.705 401.293h-123.373c-13.854 0-25.124 11.264-25.124 25.108v16.44c0 13.845 11.271 25.108 25.124 25.108h123.372c13.854 0 25.124-11.264 25.124-25.108v-16.44c.001-13.844-11.27-25.108-25.123-25.108zm5.124 41.549c0 2.769-2.347 5.108-5.124 5.108h-123.373c-2.777 0-5.124-2.34-5.124-5.108v-16.44c0-2.77 2.347-5.108 5.124-5.108h123.372c2.777 0 5.124 2.339 5.124 5.108v16.44z" data-original="#000000" class="active-path" data-old_color="#000000" fill="#766A6A"/><path d="m508.081 346.389c-1.899-2.214-4.672-3.488-7.59-3.488h-161.72c-2.918 0-5.689 1.274-7.59 3.488-1.899 2.215-2.737 5.148-2.294 8.032l9.561 62.136c.013.075 13.381 86.964 13.381 86.964.751 4.879 4.948 8.479 9.884 8.479h115.837c4.936 0 9.133-3.601 9.884-8.479l22.941-149.1c.443-2.884-.395-5.817-2.294-8.032zm-19.247 16.511-7.178 46.65c-16.685 8.126-40.771 7.126-55.635-3.01-19.262-13.108-47.515-15.402-69.941-6.903l-5.653-36.736h138.407zm-19.864 129.1h-98.679l-11.073-71.966c16.687-8.064 40.716-7.053 55.543 3.035 11.688 7.971 26.688 11.956 41.688 11.956 7.376 0 14.75-.969 21.733-2.897z" data-original="#000000" class="active-path" data-old_color="#000000" fill="#766A6A"/><path d="m234.266 226.466c-51.307-26.111-101.188-26.111-152.502.004-16.64 8.484-27.122 14.218-32.709 24.73-5.412 10.183-4.889 22.069-1.786 43.281l5.381 36.793c.718 4.911 4.931 8.553 9.895 8.553h50.611c5.522 0 10-4.478 10-10s-4.478-10-10-10h-41.968l-4.13-28.24c-2.354-16.095-3.105-25.802-.343-31 2.716-5.11 10.93-9.567 24.128-16.297 45.202-23.006 89.149-23.005 134.344-.003 13.198 6.729 21.407 11.184 24.122 16.297 2.759 5.194 2.012 14.906-.33 31.003l-4.13 28.24h-41.968c-5.522 0-10 4.478-10 10s4.478 10 10 10h50.611c4.964 0 9.177-3.642 9.895-8.553l5.382-36.801c3.087-21.213 3.605-33.1-1.796-43.271-5.586-10.517-16.065-16.251-32.707-24.736z" data-original="#000000" class="active-path" data-old_color="#000000" fill="#766A6A"/><path d="m158.076 339.827c5.522 0 9.972-4.478 9.972-10s-4.506-10-10.028-10-10 4.478-10 10 4.478 10 10 10z" data-original="#000000" class="active-path" data-old_color="#000000" fill="#766A6A"/></g></g> </svg>
