<?xml version="1.0"?>
<svg xmlns="http://www.w3.org/2000/svg" id="Capa_1" enable-background="new 0 0 512 512" height="512px" viewBox="0 0 512 512" width="512px" class=""><g><g id="XMLID_138_"><path id="XMLID_787_" d="m476.469 98.541c-24.089-34.988-56.673-54.258-91.748-54.258-2.738 0-5.489.136-8.228.378-6.618-24.321-28.9-42.264-55.309-42.264h-250.058c-39.219-.001-71.126 31.878-71.126 71.062v199.471c0 29.79 23.443 54.208 52.864 55.813v93.064c0 2.036-1.666 3.692-3.713 3.692-18.589 0-33.713 15.114-33.713 33.692v16.721c0 18.577 15.124 33.691 33.713 33.691h302.492c18.589 0 33.713-15.114 33.713-33.691v-16.721c0-18.578-15.124-33.692-33.713-33.692-2.047 0-3.713-1.656-3.713-3.692v-28.832c11.852 4.949 24.175 7.462 36.792 7.462 35.075 0 67.658-19.27 91.748-54.258 22.912-33.278 35.53-77.252 35.53-123.819s-12.618-90.54-35.531-123.819zm-446.469 174.389v-199.471c0-22.643 18.449-41.063 41.126-41.063h250.06c15.063 0 27.319 12.234 27.319 27.271 0 10.081-8.218 18.282-18.319 18.282h-13.017c-25.535 0-46.31 20.759-46.31 46.274v4.816c0 6.318-5.153 11.458-11.487 11.458-27.451 0-49.784 22.315-49.784 49.745v20.091c0 12.343-10.061 22.385-22.426 22.385-12.366 0-22.427-10.041-22.427-22.384v-28.448c0-22.822-18.58-41.389-41.418-41.389s-41.418 18.566-41.418 41.389v91.043c0 14.282-11.641 25.902-25.949 25.902s-25.95-11.619-25.95-25.901zm321.643 182.57c2.047 0 3.713 1.656 3.713 3.692v16.721c0 2.035-1.666 3.691-3.713 3.691h-302.493c-2.047 0-3.713-1.656-3.713-3.691v-16.721c0-2.036 1.666-3.692 3.713-3.692 18.589 0 33.713-15.114 33.713-33.692v-99.471c0-.136-.017-.268-.02-.404 17.302-9.518 29.054-27.913 29.054-49.003v-91.043c0-6.279 5.122-11.389 11.418-11.389s11.418 5.109 11.418 11.389v28.448c0 28.885 23.519 52.384 52.427 52.384s52.426-23.5 52.426-52.385v-20.091c0-10.888 8.875-19.745 19.784-19.745 22.876 0 41.487-18.598 41.487-41.458v-4.816c0-8.974 7.316-16.274 16.31-16.274h.761v313.857c.001 18.578 15.125 33.693 33.715 33.693zm-3.714-258.499c0-28.866 20.879-51.092 36.792-51.092 18.35 0 38.796 31.397 38.796 76.451s-20.446 76.451-38.796 76.451c-18.784 0-36.792-23.197-36.792-48.109-.218-1.012 0-28.662 0-53.701zm103.831 132.166c-18.324 26.613-42.131 41.271-67.038 41.271-11.91 0-23.573-3.324-34.665-9.88-.691-.408-1.405-.736-2.127-1.022v-46.598c10.645 10.189 23.253 15.874 36.792 15.874 38.578 0 68.796-46.759 68.796-106.451s-30.219-106.451-68.796-106.451c-13.528 0-26.135 5.642-36.792 15.848v-27.194c13.216-5.234 23.584-16.126 28.101-29.675 2.873-.396 5.793-.604 8.691-.604 24.907 0 48.714 14.657 67.038 41.271 19.5 28.321 30.24 66.252 30.24 106.804s-10.74 78.483-30.24 106.807z" data-original="#000000" class="active-path" data-old_color="#000000" fill="#ACAAAA"/><path id="XMLID_786_" d="m129.177 334.402c-8.284 0-15 6.716-15 15v61.19c0 8.284 6.716 15 15 15s15-6.716 15-15v-61.19c0-8.284-6.716-15-15-15z" data-original="#000000" class="active-path" data-old_color="#000000" fill="#ACAAAA"/><path id="XMLID_785_" d="m200.396 278.777c-8.284 0-15 6.716-15 15v116.815c0 8.284 6.716 15 15 15s15-6.716 15-15v-116.815c0-8.284-6.715-15-15-15z" data-original="#000000" class="active-path" data-old_color="#000000" fill="#ACAAAA"/><path id="XMLID_784_" d="m271.617 219.082c-8.284 0-15 6.716-15 15v176.511c0 8.284 6.716 15 15 15s15-6.716 15-15v-176.511c0-8.285-6.716-15-15-15z" data-original="#000000" class="active-path" data-old_color="#000000" fill="#ACAAAA"/></g></g> </svg>
