<?xml version="1.0" encoding="UTF-8" standalone="no"?>
<!DOCTYPE svg PUBLIC "-//W3C//DTD SVG 1.1//EN" "http://www.w3.org/Graphics/SVG/1.1/DTD/svg11.dtd">
<svg width="100%" height="100%" viewBox="0 0 513 513" version="1.1" xmlns="http://www.w3.org/2000/svg" xmlns:xlink="http://www.w3.org/1999/xlink" xml:space="preserve" xmlns:serif="http://www.serif.com/" style="fill-rule:evenodd;clip-rule:evenodd;stroke-linejoin:round;stroke-miterlimit:2;">
    <path d="M445.841,201.423C445.841,353.435 274.233,494.22 274.233,494.22C264.206,502.446 247.796,502.446 237.768,494.22C237.768,494.22 66.16,353.435 66.16,201.423C66.16,96.577 151.155,11.583 256.001,11.583C360.847,11.583 445.841,96.578 445.841,201.423Z" style="fill:rgb(56,238,152);fill-rule:nonzero;"/>
    <path d="M256.001,296.934C203.336,296.934 160.491,254.088 160.491,201.424C160.491,148.76 203.337,105.914 256.001,105.914C308.665,105.914 351.511,148.76 351.511,201.424C351.511,254.088 308.664,296.934 256.001,296.934Z" style="fill:rgb(255,225,214);fill-rule:nonzero;"/>
    <g>
        <path d="M256.001,0C144.935,0 54.576,90.359 54.576,201.424C54.576,237.797 63.962,276.411 82.472,316.191C97.088,347.6 117.412,379.84 142.883,412.017C186.061,466.564 228.632,501.708 230.423,503.177C237.594,509.06 246.798,512.002 256.002,512.002C265.206,512.002 274.409,509.06 281.581,503.177C283.372,501.707 325.942,466.564 369.12,412.017C394.59,379.841 414.915,347.601 429.531,316.191C448.041,276.411 457.427,237.799 457.427,201.424C457.424,90.359 367.065,0 256.001,0ZM351.247,397.268C309.6,449.965 267.305,484.921 266.886,485.265C261.087,490.023 250.914,490.022 245.118,485.267C244.696,484.921 202.402,449.965 160.755,397.268C122.886,349.35 77.743,276.477 77.743,201.424C77.742,103.132 157.708,23.166 256,23.166C354.292,23.166 434.258,103.132 434.258,201.424C434.258,276.476 389.116,349.35 351.247,397.268Z" style="fill:rgb(17,17,63);fill-rule:nonzero;"/>
        <path d="M256.001,94.331C196.95,94.331 148.908,142.373 148.908,201.425C148.908,260.476 196.95,308.518 256.001,308.518C315.052,308.518 363.094,260.476 363.094,201.425C363.093,142.373 315.051,94.331 256.001,94.331ZM256.001,285.351C209.723,285.351 172.074,247.702 172.074,201.424C172.074,155.146 209.723,117.496 256.001,117.496C302.279,117.496 339.928,155.146 339.928,201.424C339.928,247.702 302.277,285.351 256.001,285.351Z" style="fill:rgb(17,17,63);fill-rule:nonzero;"/>
    </g>
    <g transform="matrix(0.208638,0,0,0.208638,256.002,202.575)">
        <g transform="matrix(1,0,0,1,-256,-256)">
            <clipPath id="_clip1">
                <rect x="0" y="0" width="512" height="512"/>
            </clipPath>
            <g clip-path="url(#_clip1)">
                <g>
                    <path d="M412.13,96.991C414.362,91.517 415.6,85.535 415.6,79.266C415.6,53.277 394.456,32.133 368.467,32.133C362.076,32.133 355.851,33.411 350.104,35.844C338.31,23.39 321.771,16.066 304.2,16.066C291.118,16.066 278.446,20.19 267.919,27.558C253.083,10.222 231.374,-0 207.8,-0C184.222,-0 162.511,10.221 147.673,27.559C137.148,20.19 124.479,16.067 111.401,16.067C93.828,16.067 77.286,23.39 65.491,35.845C59.745,33.412 53.522,32.134 47.135,32.134C21.145,32.134 0,53.277 0,79.267C0,100.012 13.479,117.658 32.134,123.939L32.134,432.734C32.134,476.521 67.541,512 111.4,512L304.2,512C347.975,512 383.467,476.59 383.467,432.733L383.467,415.6L400.6,415.6C462.127,415.6 512,365.822 512,304.201L512,207.801C512,149.857 467.965,102.7 412.13,96.991ZM353.467,432.733C353.467,459.931 331.457,482 304.2,482L111.4,482C84.186,482 62.133,459.994 62.133,432.733L62.133,126.4L96.4,126.4L96.4,175.667C96.4,201.715 117.453,222.8 143.533,222.8C169.577,222.8 190.667,201.601 190.667,175.667L190.667,126.4L224.934,126.4L224.934,288.133C224.934,314.122 246.078,335.266 272.067,335.266C298.111,335.266 319.201,314.067 319.201,288.133L319.201,126.4L353.468,126.4L353.468,432.733L353.467,432.733ZM368.467,96.4L304.2,96.4C295.916,96.4 289.2,103.116 289.2,111.4L289.2,288.133C289.2,297.525 281.569,305.266 272.066,305.266C262.619,305.266 254.933,297.58 254.933,288.133L254.933,111.4C254.933,103.116 248.217,96.4 239.933,96.4L175.666,96.4C167.382,96.4 160.666,103.116 160.666,111.4L160.666,175.667C160.666,185.059 153.035,192.8 143.532,192.8C134.066,192.8 126.399,185.117 126.399,175.667L126.399,111.4C126.399,103.116 119.683,96.4 111.399,96.4L47.134,96.4C37.687,96.4 30,88.714 30,79.267C30,69.82 37.687,62.134 47.134,62.134C51.526,62.134 55.705,63.802 58.904,66.829C62.27,70.017 66.924,71.467 71.503,70.763C76.085,70.056 80.083,67.271 82.333,63.217C88.205,52.638 99.343,46.067 111.401,46.067C122.049,46.067 131.797,51.004 138.145,59.612C141.247,63.817 146.312,66.102 151.519,65.652C156.725,65.199 161.319,62.069 163.647,57.39C172.052,40.495 188.971,30 207.8,30C226.624,30 243.54,40.495 251.946,57.39C254.274,62.069 258.868,65.199 264.074,65.652C269.292,66.108 274.346,63.817 277.448,59.612C283.796,51.004 293.548,46.067 304.201,46.067C316.255,46.067 327.389,52.638 333.261,63.217C335.51,67.271 339.508,70.056 344.09,70.763C348.672,71.467 353.323,70.018 356.69,66.829C359.887,63.802 364.071,62.134 368.468,62.134C377.915,62.134 385.601,69.82 385.601,79.267C385.601,88.714 377.914,96.4 368.467,96.4ZM383.467,190.667L400.6,190.667C410.036,190.667 417.734,198.357 417.734,207.8L417.734,304.2C417.734,313.593 410.103,321.333 400.6,321.333L383.467,321.333L383.467,190.667ZM482,304.2C482,349.156 445.627,385.599 400.6,385.599L383.467,385.599L383.467,351.332L400.6,351.332C426.211,351.332 447.734,330.639 447.734,304.199L447.734,207.799C447.734,181.821 426.583,160.666 400.6,160.666L383.467,160.666L383.467,126.4L400.6,126.4C445.542,126.4 482,162.776 482,207.799L482,304.2Z" style="fill:rgb(238,56,64);fill-rule:nonzero;"/>
                </g>
            </g>
        </g>
    </g>
</svg>
