<?xml version="1.0"?>
<svg xmlns="http://www.w3.org/2000/svg" id="Layer_1" height="512px" viewBox="0 0 512 512" width="512px" data-name="Layer 1" class=""><g><path d="m253.58 226.67a18.267 18.267 0 0 0 -13 5.387l-22.049 22.043a18.4 18.4 0 1 0 26.011 26.02l22.05-22.05a18.4 18.4 0 0 0 -13.012-31.4zm4.527 22.917-22.049 22.05a6.4 6.4 0 1 1 -9.046-9.044l22.05-22.051a6.4 6.4 0 0 1 9.045 9.045z" data-original="#000000" class="active-path" data-old_color="#000000" fill="#766A6A"/><path d="m320.42 424.29h-11.15v-11.16a6 6 0 0 0 -12 0v11.16h-11.16a6 6 0 0 0 0 12h11.16v11.16a6 6 0 1 0 12 0v-11.16h11.15a6 6 0 0 0 0-12z" data-original="#000000" class="active-path" data-old_color="#000000" fill="#766A6A"/><path d="m428.647 323.967a19 19 0 1 0 26.875 0 18.885 18.885 0 0 0 -26.875 0zm18.391 18.38a7.011 7.011 0 0 1 -9.906 0 7 7 0 0 1 9.905-9.9 7.012 7.012 0 0 1 .001 9.9z" data-original="#000000" class="active-path" data-old_color="#000000" fill="#766A6A"/><path d="m153.2 88.64h11.15v11.16a6 6 0 0 0 12 0v-11.16h11.16a6 6 0 0 0 0-12h-11.16v-11.15a6 6 0 0 0 -12 0v11.15h-11.15a6 6 0 0 0 0 12z" data-original="#000000" class="active-path" data-old_color="#000000" fill="#766A6A"/><path d="m106.227 202.17a19.009 19.009 0 1 0 -13.434-5.57 18.873 18.873 0 0 0 13.434 5.57zm-4.94-23.951a6.986 6.986 0 1 1 -2.058 4.958 6.927 6.927 0 0 1 2.058-4.958z" data-original="#000000" class="active-path" data-old_color="#000000" fill="#766A6A"/><path d="m392.271 304.029a6 6 0 0 0 -7.585-7.592l-11.6 3.862a35.8 35.8 0 0 1 -22.524 0l-11.59-3.86a6 6 0 0 0 -7.59 7.586l3.861 11.606a35.767 35.767 0 0 1 0 22.516l-3.859 11.6a6 6 0 0 0 7.594 7.585l11.583-3.868a35.934 35.934 0 0 1 22.527 0l11.6 3.871a6 6 0 0 0 7.59-7.591l-3.87-11.6a35.782 35.782 0 0 1 0-22.512zm-15.252 37.91.069.209-.214-.071a48.012 48.012 0 0 0 -30.114 0l-.208.069.069-.208a47.847 47.847 0 0 0 0-30.1l-.075-.225.213.071a47.871 47.871 0 0 0 30.114 0l.217-.072-.073.22a47.845 47.845 0 0 0 .002 30.107z" data-original="#000000" class="active-path" data-old_color="#000000" fill="#766A6A"/><path d="m390.015 58.745a82.135 82.135 0 0 0 -47.854-1.962 6 6 0 0 0 3.018 11.617 70.187 70.187 0 0 1 40.886 1.679 6 6 0 1 0 3.95-11.331z" data-original="#000000" class="active-path" data-old_color="#000000" fill="#766A6A"/><path d="m410.326 69.2a6 6 0 1 0 -6.953 9.78 69.986 69.986 0 0 1 6.972 5.664 6 6 0 0 0 8.15-8.808 81.994 81.994 0 0 0 -8.169-6.636z" data-original="#000000" class="active-path" data-old_color="#000000" fill="#766A6A"/><path d="m438.842 59.807a107.311 107.311 0 0 0 -136.148-12.9 20.849 20.849 0 0 0 -31.344 18.023 20.682 20.682 0 0 0 2.84 10.47 106.372 106.372 0 0 0 -18.358 54.921l-151.739 178.92a25.435 25.435 0 0 0 -2.56 29.32l-15.933 15.939a41.421 41.421 0 0 0 -3.943 54.012l-19.164 19.16a70.2 70.2 0 0 0 -20.763 49.941 6 6 0 0 0 5.994 6.007h.005a6 6 0 0 0 6-5.993 58.285 58.285 0 0 1 17.243-41.464l19.179-19.18a41.482 41.482 0 0 0 54-3.93l15.989-15.989a25.529 25.529 0 0 0 28.789-2.809l179.4-151.449a106.431 106.431 0 0 0 54.916-18.356 20.858 20.858 0 0 0 31.355-18.03 20.712 20.712 0 0 0 -2.842-10.478 107.33 107.33 0 0 0 -12.916-136.135zm-303.173 344.759a29.4 29.4 0 1 1 -41.586-41.583l15.323-15.324 41.538 41.632zm79.823-48.439-44.644-44.645a6 6 0 0 0 -8.485 8.486l43.927 43.932-25.1 21.192a13.516 13.516 0 0 1 -17.7-.233c-.19-.174-.38-.357-.565-.542l-48.953-49.064-.109-.108c-.032-.036-.065-.071-.1-.106a13.478 13.478 0 0 1 -.517-18.039l21.178-24.971 11.276 11.271a6 6 0 0 0 8.487-8.485l-11.97-11.97 114.183-134.64a107.37 107.37 0 0 0 94 94.036zm149.941-125.205a95.318 95.318 0 0 1 -82.978-146.25l131.512 131.52a94.6 94.6 0 0 1 -48.534 14.73zm78.049-44.264-15.241-15.24a6 6 0 1 0 -8.484 8.485l19.91 19.91a5.975 5.975 0 0 0 .516.592c.048.047.106.078.157.123a8.843 8.843 0 0 1 -.34 12.172 8.925 8.925 0 0 1 -12.555 0l-141.553-141.563a8.861 8.861 0 0 1 .06-12.484 8.892 8.892 0 0 1 12.476-.06c.056.055.114.11.173.163l99.223 99.216a6 6 0 1 0 8.485-8.485l-94.32-94.313a95.291 95.291 0 0 1 131.493 131.484z" data-original="#000000" class="active-path" data-old_color="#000000" fill="#766A6A"/></g> </svg>
