<?xml version="1.0" encoding="UTF-8" standalone="no"?>
<!DOCTYPE svg PUBLIC "-//W3C//DTD SVG 1.1//EN" "http://www.w3.org/Graphics/SVG/1.1/DTD/svg11.dtd">
<svg width="100%" height="100%" viewBox="0 0 1024 1024" version="1.1" xmlns="http://www.w3.org/2000/svg" xmlns:xlink="http://www.w3.org/1999/xlink" xml:space="preserve" xmlns:serif="http://www.serif.com/" style="fill-rule:evenodd;clip-rule:evenodd;stroke-linejoin:round;stroke-miterlimit:2;">
    <g transform="matrix(2,0,0,2,0,0)">
        <g>
            <path d="M256,483.515C248.71,483.515 241.683,480.875 236.207,476.078C215.523,457.992 195.582,440.996 177.988,426.004L177.898,425.925C126.316,381.969 81.773,344.008 50.781,306.613C16.137,264.809 0,225.172 0,181.871C0,139.801 14.426,100.989 40.617,72.578C67.121,43.832 103.488,28 143.031,28C172.586,28 199.652,37.344 223.476,55.77C235.5,65.071 246.398,76.453 256,89.731C265.605,76.453 276.499,65.071 288.527,55.77C312.351,37.344 339.417,28 368.972,28C408.511,28 444.882,43.832 471.386,72.578C497.577,100.989 511.999,139.801 511.999,181.871C511.999,225.172 495.866,264.809 461.222,306.609C430.23,344.008 385.691,381.965 334.117,425.918C316.492,440.933 296.519,457.957 275.789,476.086C270.316,480.875 263.285,483.515 256,483.515ZM143.031,57.993C111.965,57.993 83.426,70.391 62.664,92.907C41.594,115.762 29.988,147.356 29.988,181.871C29.988,218.289 43.523,250.859 73.871,287.477C103.203,322.871 146.832,360.051 197.347,403.101L197.441,403.179C215.101,418.23 235.121,435.293 255.957,453.511C276.917,435.257 296.968,418.168 314.663,403.093C365.175,360.043 408.8,322.871 438.132,287.477C468.476,250.859 482.011,218.289 482.011,181.871C482.011,147.356 470.405,115.762 449.335,92.907C428.577,70.391 400.034,57.993 368.972,57.993C346.214,57.993 325.32,65.227 306.87,79.493C290.429,92.211 278.976,108.289 272.261,119.539C268.808,125.324 262.73,128.778 256,128.778C249.269,128.778 243.191,125.324 239.738,119.539C233.027,108.289 221.574,92.211 205.129,79.493C186.679,65.227 165.785,57.993 143.031,57.993Z" style="fill:rgb(155,89,182);fill-rule:nonzero;"/>
        </g>
    </g>
</svg>
