<?xml version="1.0"?>
<svg xmlns="http://www.w3.org/2000/svg" xmlns:xlink="http://www.w3.org/1999/xlink" xmlns:svgjs="http://svgjs.com/svgjs" version="1.1" width="512" height="512" x="0" y="0" viewBox="0 0 512 512" style="enable-background:new 0 0 512 512" xml:space="preserve"><g><g xmlns="http://www.w3.org/2000/svg" id="XMLID_2317_"><g id="XMLID_1977_"><g id="XMLID_1979_"><path id="XMLID_2023_" d="m377.401 166.5h-33.583v-16.662c17.28-6.922 30.609-23.715 32.007-42.496 1.041-13.985-3.617-27.322-13.116-37.555-9.368-10.092-22.634-15.879-36.397-15.879-3.002 0-5.971.267-8.887.795-4.477-30.893-31.135-54.703-63.248-54.703-20.175 0-38.641 9.271-50.593 24.83-8.11-5.418-17.714-8.393-27.646-8.393-18.224 0-34.696 10.085-43.362 25.359-7.592-4.314-16.263-6.606-25.141-6.52-6.302.066-12.436 1.319-18.231 3.722-5.102 2.114-7.523 7.965-5.408 13.067s7.966 7.525 13.067 5.407c3.422-1.419 7.051-2.158 10.785-2.198 8.434-.048 16.296 3.267 22.08 9.45 2.546 2.722 6.392 3.802 9.98 2.804 3.589-.997 6.327-3.907 7.103-7.551 2.907-13.641 15.156-23.541 29.127-23.541 8.569 0 16.733 3.705 22.398 10.166 2.2 2.508 5.507 3.756 8.814 3.322 3.308-.433 6.183-2.486 7.665-5.476 7.473-15.08 22.555-24.448 39.362-24.448 24.211 0 43.908 19.697 43.908 43.954 0 4.235 2.085 8.191 5.578 10.582 3.506 2.399 7.968 2.91 11.938 1.371 3.413-1.326 7.016-1.999 10.71-1.999 8.341 0 16.062 3.369 21.74 9.485 5.672 6.11 8.453 14.088 7.83 22.464-1.016 13.638-13.884 26.392-27.538 27.292-8.948.587-17.58-2.804-23.685-9.312-12.014-12.811-31.08-15.691-46.366-7-29.057 16.52-64.308 17.553-94.299 2.762-9.477-4.673-20.485-4.138-29.445 1.433-8.928 5.552-14.258 15.146-14.258 25.667v50.584c0 11.388-9.258 20.83-20.637 21.048-5.525.087-10.799-2.032-14.863-6.019-4.196-4.116-6.603-9.818-6.603-15.643v-65.91c0-5.523-4.477-10-10-10s-10 4.478-10 10v65.91c0 11.16 4.591 22.066 12.597 29.92 2.472 2.425 5.185 4.495 8.077 6.195v195.175l-13.947 32.745c-4.862 11.416-3.68 24.412 3.162 34.764 6.842 10.351 18.335 16.532 30.744 16.532h225.037c12.409 0 23.902-6.18 30.745-16.532s8.024-23.347 3.162-34.764l-13.947-32.745v-29.459h33.583c42.136 0 76.416-34.28 76.416-76.417v-79.166c.001-42.137-34.28-76.417-76.415-76.417zm-33.584 64h33.583c6.846 0 12.416 5.57 12.416 12.417v79.166c0 6.847-5.57 12.417-12.416 12.417h-33.583zm-203.527-83.802c0-3.613 1.756-6.778 4.819-8.683 3.095-1.924 6.753-2.101 10.038-.479 35.947 17.729 78.2 16.489 113.03-3.312 7.106-4.04 16.313-2.655 21.893 3.295 8.877 9.465 20.93 14.984 33.748 15.627v45.855h-183.57c.024-.57.044-1.142.044-1.718v-50.585zm-41.039 91.636c.261 0 .522-.003.784-.008 14.256-.273 26.796-7.973 33.95-19.326h189.831v201h-224.955v-181.676c.13.002.26.01.39.01zm238.666 246.106c-3.176 4.805-8.301 7.56-14.06 7.56h-225.037c-5.759 0-10.884-2.756-14.06-7.56-3.176-4.805-3.703-10.6-1.446-15.898l12.156-28.542h231.737l12.156 28.542c2.257 5.299 1.73 11.093-1.446 15.898zm95.9-162.357c0 31.108-25.308 56.417-56.416 56.417h-33.583v-24h33.583c17.874 0 32.416-14.542 32.416-32.417v-79.166c0-17.875-14.542-32.417-32.416-32.417h-33.583v-24h33.583c31.108 0 56.416 25.309 56.416 56.417z" fill="#9b59b6" data-original="#000000" style=""/><path id="XMLID_2022_" d="m173.984 292.5c2.63 0 5.21-1.07 7.07-2.931 1.86-1.859 2.93-4.439 2.93-7.069s-1.07-5.21-2.93-7.07-4.44-2.93-7.07-2.93-5.21 1.069-7.07 2.93c-1.86 1.86-2.93 4.44-2.93 7.07s1.07 5.21 2.93 7.069c1.86 1.861 4.439 2.931 7.07 2.931z" fill="#9b59b6" data-original="#000000" style=""/><path id="XMLID_2021_" d="m147.984 380c2.63 0 5.21-1.07 7.07-2.931 1.86-1.859 2.93-4.439 2.93-7.069s-1.07-5.21-2.93-7.07-4.44-2.93-7.07-2.93-5.21 1.069-7.07 2.93c-1.86 1.86-2.93 4.44-2.93 7.07s1.07 5.21 2.93 7.069c1.86 1.861 4.439 2.931 7.07 2.931z" fill="#9b59b6" data-original="#000000" style=""/><path id="XMLID_2009_" d="m223.984 335c2.63 0 5.21-1.07 7.07-2.931 1.86-1.859 2.93-4.439 2.93-7.069s-1.07-5.21-2.93-7.07-4.44-2.93-7.07-2.93-5.21 1.069-7.07 2.93c-1.86 1.86-2.93 4.44-2.93 7.07 0 2.64 1.07 5.21 2.93 7.069 1.86 1.861 4.439 2.931 7.07 2.931z" fill="#9b59b6" data-original="#000000" style=""/><path id="XMLID_2008_" d="m272.984 276c2.63 0 5.21-1.07 7.07-2.931 1.86-1.859 2.93-4.439 2.93-7.069s-1.07-5.21-2.93-7.07-4.44-2.93-7.07-2.93-5.21 1.069-7.07 2.93c-1.86 1.86-2.93 4.44-2.93 7.07s1.07 5.21 2.93 7.069c1.86 1.861 4.439 2.931 7.07 2.931z" fill="#9b59b6" data-original="#000000" style=""/><path id="XMLID_2002_" d="m272.984 380c2.63 0 5.21-1.07 7.07-2.931 1.86-1.859 2.93-4.439 2.93-7.069s-1.07-5.21-2.93-7.07-4.44-2.93-7.07-2.93-5.21 1.069-7.07 2.93c-1.86 1.86-2.93 4.44-2.93 7.07s1.07 5.21 2.93 7.069c1.86 1.861 4.439 2.931 7.07 2.931z" fill="#9b59b6" data-original="#000000" style=""/><path id="XMLID_2000_" d="m68.183 95.76c2.63 0 5.21-1.07 7.07-2.93s2.93-4.44 2.93-7.07-1.07-5.21-2.93-7.07c-1.86-1.859-4.44-2.93-7.07-2.93s-5.21 1.07-7.07 2.93-2.93 4.44-2.93 7.07 1.07 5.21 2.93 7.07c1.871 1.859 4.44 2.93 7.07 2.93z" fill="#9b59b6" data-original="#000000" style=""/></g></g></g></g></svg>
